<svg width="680" height="230" fill="none" xmlns="http://www.w3.org/2000/svg"><path opacity=".7" fill-rule="evenodd" clip-rule="evenodd" d="M205.902 209.31c-6.237 4.061-12.522 7.502-18.756 10.282-24.637 10.983-48.145 11.515-65.087-.214-3.868-2.677-7.255-5.898-10.16-9.594 17.971-12.066 35.429-29.167 50.143-50.31 35.412-50.884 43.283-108.432 21.46-138.755 6.252-4.074 12.552-7.525 18.801-10.31 24.636-10.984 48.144-11.516 65.087.213 3.858 2.67 7.238 5.882 10.137 9.566-17.986 12.067-35.46 29.178-50.186 50.338-35.423 50.9-43.288 108.469-21.439 138.784zM182.301 19.117C213.607-1.32 246.258-6.44 268.532 8.98c4.082 2.826 7.637 6.218 10.672 10.098C310.481-1.326 343.094-6.43 365.347 8.98a48.69 48.69 0 0 1 10.697 10.137C407.35-1.32 440.001-6.44 462.276 8.98c4.081 2.826 7.636 6.218 10.671 10.098C504.224-1.326 536.836-6.43 559.089 8.98c4.094 2.835 7.658 6.24 10.698 10.137C601.093-1.319 633.744-6.44 656.019 8.98 671.32 19.573 679.227 38.13 680 60.507h-2.002c-.771-21.93-8.521-39.777-23.122-49.885-16.942-11.73-40.45-11.197-65.087-.214-6.249 2.787-12.549 6.237-18.801 10.312 21.823 30.322 13.952 87.87-21.46 138.754-14.714 21.143-32.172 38.244-50.142 50.309 2.904 3.697 6.291 6.918 10.159 9.595 16.943 11.729 40.451 11.197 65.087.214 10.785-4.808 21.718-11.596 32.301-20.15v2.561c-34.805 27.607-73.316 36.472-98.53 19.017a48.71 48.71 0 0 1-10.694-10.127c-31.29 20.428-63.923 25.544-86.187 10.127-4.083-2.828-7.64-6.224-10.675-10.108-31.293 20.412-63.923 25.521-86.188 10.108a48.724 48.724 0 0 1-10.693-10.126c-31.29 20.427-63.922 25.543-86.186 10.126-4.084-2.828-7.641-6.224-10.676-10.109-31.292 20.413-63.923 25.522-86.188 10.109a48.724 48.724 0 0 1-10.693-10.126c-31.29 20.427-63.923 25.543-86.186 10.126-35.47-24.562-31.189-91.941 9.56-150.494C74.348 11.973 136.135-15.582 171.604 8.98c4.094 2.835 7.658 6.24 10.698 10.137zm-73.28 190.174c-6.244 4.07-12.536 7.517-18.778 10.3-24.628 10.984-48.127 11.516-65.064-.213C8.243 207.65.527 185.501 2.234 158.644c1.703-26.813 12.806-57.951 33.008-86.98 20.202-29.027 45.566-50.29 70.154-61.255 24.628-10.984 48.128-11.516 65.065.213 3.87 2.68 7.259 5.904 10.164 9.605-17.972 12.064-35.429 29.162-50.144 50.3-35.428 50.889-43.3 108.445-21.46 138.764zm1.674-1.106c-8.961-12.401-12.851-29.684-11.59-49.541 1.705-26.813 12.812-57.952 33.02-86.98 14.616-20.994 31.933-37.926 49.703-49.838 8.953 12.4 12.839 29.678 11.578 49.53-1.703 26.813-12.807 57.951-33.008 86.979-14.615 21.001-31.933 37.937-49.703 49.85zm96.881.019c-8.968-12.402-12.861-29.693-11.599-49.56 1.704-26.813 12.807-57.951 33.009-86.98 14.627-21.017 31.961-37.964 49.746-49.879 7.301 10.087 11.241 23.41 11.779 38.722h2.003c-.539-15.6-4.545-29.344-12.107-39.827 6.23-4.057 12.506-7.494 18.733-10.271 24.628-10.984 48.128-11.516 65.064.213 3.871 2.68 7.259 5.904 10.164 9.605-17.971 12.064-35.429 29.162-50.144 50.3-35.428 50.889-43.3 108.445-21.459 138.765-6.245 4.069-12.536 7.516-18.778 10.299-24.628 10.984-48.128 11.516-65.064-.213-3.861-2.673-7.242-5.888-10.142-9.576a166.092 166.092 0 0 0 10.665-7.799v-2.561a164.804 164.804 0 0 1-11.87 8.762zM484.255 60.507c-.538-15.313-4.479-28.635-11.78-38.722-17.786 11.915-35.12 28.862-49.747 49.88-20.202 29.028-31.305 60.166-33.009 86.979-1.262 19.867 2.632 37.158 11.6 49.56a164.74 164.74 0 0 0 11.871-8.762v2.561a166.285 166.285 0 0 1-10.666 7.799c2.9 3.689 6.281 6.903 10.141 9.576 16.936 11.729 40.436 11.197 65.064.213 6.242-2.783 12.534-6.23 18.778-10.3-21.839-30.319-13.968-87.875 21.46-138.765 14.715-21.137 32.172-38.234 50.144-50.299-2.905-3.7-6.294-6.925-10.165-9.605-16.936-11.729-40.436-11.197-65.064-.213-6.226 2.777-12.503 6.214-18.733 10.27 7.563 10.483 11.569 24.227 12.108 39.828h-2.002zm-23.122-49.885c3.858 2.67 7.237 5.881 10.136 9.565-17.986 12.067-35.459 29.179-50.185 50.34-35.424 50.899-43.288 108.469-21.439 138.783-6.238 4.061-12.522 7.502-18.756 10.282-24.637 10.983-48.144 11.515-65.087-.214-3.868-2.677-7.255-5.898-10.159-9.594 17.971-12.065 35.428-29.167 50.143-50.31 35.412-50.884 43.283-108.433 21.459-138.755 6.252-4.074 12.552-7.525 18.801-10.31 24.636-10.984 48.144-11.516 65.087.213zm86.75 147.713c-14.614 21.001-31.932 37.937-49.702 49.85-8.961-12.401-12.851-29.684-11.589-49.541 1.704-26.813 12.811-57.952 33.019-86.98 14.616-20.993 31.933-37.926 49.703-49.838 8.953 12.4 12.839 29.679 11.578 49.53-1.704 26.813-12.807 57.951-33.009 86.979zm-243.445 49.85c17.771-11.913 35.088-28.849 49.703-49.85 20.202-29.028 31.305-60.166 33.009-86.98 1.261-19.85-2.625-37.13-11.578-49.53-17.771 11.913-35.088 28.845-49.704 49.84-20.208 29.027-31.315 60.166-33.019 86.979-1.262 19.857 2.628 37.14 11.589 49.541z" fill="#4A4A4A"/></svg>